<svg width="14" height="14" viewBox="0 0 14 14" fill="none" xmlns="http://www.w3.org/2000/svg">
<mask id="path-1-outside-1_30105_2513" maskUnits="userSpaceOnUse" x="-0.800781" y="-0.800049" width="14" height="14" fill="black">
<rect fill="white" x="-0.800781" y="-0.800049" width="14" height="14"/>
<path d="M6.53711 1.19995C9.48455 1.20013 11.8738 3.58944 11.874 6.53687C11.874 7.89968 11.362 9.14246 10.5215 10.0857L10.8086 11.4236L9.30664 11.1003C8.49923 11.5915 7.55125 11.8747 6.53711 11.8748C3.58939 11.8748 1.19922 9.48459 1.19922 6.53687C1.19944 3.58933 3.58952 1.19995 6.53711 1.19995Z"/>
</mask>
<path d="M6.53711 1.19995L6.53718 -4.88758e-05H6.53711V1.19995ZM11.874 6.53687H13.074V6.53678L11.874 6.53687ZM10.5215 10.0857L9.6256 9.28733L9.22041 9.74201L9.3482 10.3375L10.5215 10.0857ZM10.8086 11.4236L10.5561 12.5967L12.3715 12.9874L11.9819 11.1718L10.8086 11.4236ZM9.30664 11.1003L9.55912 9.9272L9.09157 9.82658L8.68299 10.0751L9.30664 11.1003ZM6.53711 11.8748V13.0748H6.53718L6.53711 11.8748ZM1.19922 6.53687L-0.000781298 6.53678V6.53687H1.19922ZM6.53711 1.19995L6.53704 2.39995C8.82177 2.40009 10.6739 4.25218 10.674 6.53695L11.874 6.53687L13.074 6.53678C13.0738 2.9267 10.1473 0.000165701 6.53718 -4.88758e-05L6.53711 1.19995ZM11.874 6.53687H10.674C10.674 7.59315 10.2785 8.55468 9.6256 9.28733L10.5215 10.0857L11.4174 10.8841C12.4456 9.73024 13.074 8.20622 13.074 6.53687H11.874ZM10.5215 10.0857L9.3482 10.3375L9.63531 11.6754L10.8086 11.4236L11.9819 11.1718L11.6948 9.83391L10.5215 10.0857ZM10.8086 11.4236L11.0611 10.2504L9.55912 9.9272L9.30664 11.1003L9.05416 12.2735L10.5561 12.5967L10.8086 11.4236ZM9.30664 11.1003L8.68299 10.0751C8.05794 10.4554 7.32481 10.6747 6.53704 10.6748L6.53711 11.8748L6.53718 13.0748C7.77768 13.0747 8.94052 12.7276 9.93029 12.1256L9.30664 11.1003ZM6.53711 11.8748V10.6748C4.25213 10.6748 2.39922 8.82185 2.39922 6.53687H1.19922H-0.000781298C-0.000781298 10.1473 2.92665 13.0748 6.53711 13.0748V11.8748ZM1.19922 6.53687L2.39922 6.53695C2.39939 4.25229 4.25207 2.39995 6.53711 2.39995V1.19995V-4.88758e-05C2.92698 -4.88758e-05 -0.000511169 2.92637 -0.000781298 6.53678L1.19922 6.53687Z" fill="#6B7280" mask="url(#path-1-outside-1_30105_2513)"/>
</svg>
